<svg width="256" height="256" viewBox="0 0 256 256" fill="none" xmlns="http://www.w3.org/2000/svg">
<path d="M127.997 255.995C198.689 255.995 255.995 198.689 255.995 127.997C255.995 57.3064 198.689 0 127.997 0C57.3064 0 0 57.3064 0 127.997C0 198.689 57.3064 255.995 127.997 255.995Z" fill="white"/>
<path d="M111.723 179.063C111.723 174.747 113.437 170.608 116.489 167.555C119.542 164.503 123.681 162.789 127.998 162.789C121.217 162.779 114.717 160.082 109.923 155.287C105.129 150.493 102.431 143.993 102.422 137.213C102.422 141.529 100.707 145.669 97.6552 148.721C94.6031 151.773 90.4635 153.488 86.1472 153.488C81.8308 153.488 77.6912 151.773 74.6391 148.721C71.587 145.669 69.8723 141.529 69.8723 137.213C69.8895 152.624 76.0189 167.398 86.9158 178.295C97.8127 189.192 112.587 195.321 127.998 195.338C123.681 195.338 119.542 193.624 116.489 190.572C113.437 187.519 111.723 183.38 111.723 179.063Z" fill="#7D4DFF"/>
<path d="M169.848 153.488C165.535 153.481 161.402 151.764 158.354 148.713C155.307 145.661 153.594 141.526 153.593 137.213C153.584 143.993 150.886 150.493 146.092 155.287C141.297 160.082 134.798 162.779 128.017 162.789C132.334 162.789 136.473 164.503 139.525 167.555C142.578 170.608 144.292 174.747 144.292 179.063C144.292 183.38 142.578 187.519 139.525 190.572C136.473 193.624 132.334 195.338 128.017 195.338C143.423 195.313 158.189 189.18 169.08 178.284C179.97 167.388 186.095 152.618 186.113 137.213C186.113 141.528 184.399 145.666 181.349 148.718C178.299 151.769 174.162 153.485 169.848 153.488V153.488Z" fill="#526DFF"/>
<path d="M86.1472 120.933C90.464 120.935 94.6035 122.65 97.6555 125.703C100.708 128.756 102.422 132.896 102.422 137.213V92.6461C102.422 88.3297 100.707 84.1901 97.6552 81.138C94.6031 78.0859 90.4635 76.3712 86.1472 76.3712C81.8308 76.3712 77.6912 78.0859 74.6391 81.138C71.587 84.1901 69.8723 88.3297 69.8723 92.6461V137.213C69.8723 132.896 71.5868 128.756 74.6388 125.703C77.6908 122.65 81.8303 120.935 86.1472 120.933V120.933Z" fill="#E040FA"/>
<path d="M169.848 76.3712C165.535 76.3765 161.401 78.0936 158.353 81.1451C155.305 84.1967 153.593 88.3332 153.593 92.6461V137.213C153.593 132.897 155.308 128.757 158.36 125.705C161.412 122.653 165.552 120.938 169.868 120.938C174.184 120.938 178.324 122.653 181.376 125.705C184.428 128.757 186.143 132.897 186.143 137.213V92.6461C186.143 90.507 185.722 88.3888 184.903 86.4126C184.084 84.4364 182.884 82.6412 181.37 81.1295C179.857 79.6178 178.06 78.4195 176.083 77.603C174.106 76.7865 171.987 76.3679 169.848 76.3712Z" fill="#40C4FE"/>
<path d="M127.998 195.338C136.986 195.338 144.272 188.052 144.272 179.063C144.272 170.075 136.986 162.789 127.998 162.789C119.009 162.789 111.723 170.075 111.723 179.063C111.723 188.052 119.009 195.338 127.998 195.338Z" fill="#182085"/>
<path d="M86.1472 153.488C95.1355 153.488 102.422 146.201 102.422 137.213C102.422 128.225 95.1355 120.938 86.1472 120.938C77.1588 120.938 69.8723 128.225 69.8723 137.213C69.8723 146.201 77.1588 153.488 86.1472 153.488Z" fill="#182085"/>
<path d="M169.848 153.488C178.836 153.488 186.123 146.201 186.123 137.213C186.123 128.225 178.836 120.938 169.848 120.938C160.859 120.938 153.573 128.225 153.573 137.213C153.573 146.201 160.859 153.488 169.848 153.488Z" fill="#182085"/>
</svg>
