<svg width="32" height="32" viewBox="0 0 32 32" fill="none" xmlns="http://www.w3.org/2000/svg">
<path d="M16 32C24.8366 32 32 24.8366 32 16C32 7.16344 24.8366 0 16 0C7.16344 0 0 7.16344 0 16C0 24.8366 7.16344 32 16 32Z" fill="white"/>
<path d="M13.1293 24.6532C13.1293 23.9146 13.4227 23.2062 13.945 22.6839C14.4673 22.1616 15.1757 21.8681 15.9144 21.8681C14.7541 21.8665 13.6418 21.4049 12.8213 20.5845C12.0009 19.764 11.5393 18.6517 11.5377 17.4915C11.5377 18.2301 11.2443 18.9385 10.722 19.4608C10.1996 19.9831 9.49125 20.2765 8.75261 20.2765C8.01396 20.2765 7.30556 19.9831 6.78326 19.4608C6.26096 18.9385 5.96753 18.2301 5.96753 17.4915C5.97048 20.1286 7.01939 22.6569 8.88414 24.5217C10.7489 26.3864 13.2772 27.4353 15.9144 27.4383C15.1757 27.4383 14.4673 27.1448 13.945 26.6225C13.4227 26.1002 13.1293 25.3918 13.1293 24.6532Z" fill="#7D4DFF"/>
<path d="M23.0761 20.2765C22.3381 20.2754 21.6307 19.9815 21.1092 19.4593C20.5877 18.9372 20.2946 18.2294 20.2944 17.4915C20.2928 18.6517 19.8312 19.764 19.0108 20.5845C18.1903 21.4049 17.078 21.8665 15.9177 21.8681C16.6564 21.8681 17.3648 22.1616 17.8871 22.6839C18.4094 23.2062 18.7028 23.9146 18.7028 24.6532C18.7028 25.3918 18.4094 26.1002 17.8871 26.6225C17.3648 27.1448 16.6564 27.4383 15.9177 27.4383C18.554 27.434 21.081 26.3845 22.9446 24.5199C24.8083 22.6552 25.8565 20.1277 25.8594 17.4915C25.8594 18.2298 25.5662 18.9379 25.0443 19.4602C24.5224 19.9824 23.8144 20.2761 23.0761 20.2765V20.2765Z" fill="#526DFF"/>
<path d="M8.75261 14.7055C9.49133 14.7057 10.1997 14.9993 10.722 15.5218C11.2443 16.0442 11.5377 16.7527 11.5377 17.4914V9.86479C11.5377 9.12614 11.2443 8.41775 10.722 7.89544C10.1996 7.37314 9.49125 7.07971 8.75261 7.07971C8.01396 7.07971 7.30556 7.37314 6.78326 7.89544C6.26096 8.41775 5.96753 9.12614 5.96753 9.86479V17.4914C5.96753 16.7527 6.26093 16.0442 6.78321 15.5218C7.30549 14.9993 8.01388 14.7057 8.75261 14.7055V14.7055Z" fill="#E040FA"/>
<path d="M23.0761 7.07972C22.338 7.08062 21.6305 7.37445 21.109 7.89666C20.5874 8.41886 20.2944 9.12674 20.2944 9.8648V17.4915C20.2944 16.7528 20.5879 16.0444 21.1102 15.5221C21.6325 14.9998 22.3409 14.7064 23.0795 14.7064C23.8182 14.7064 24.5265 14.9998 25.0489 15.5221C25.5712 16.0444 25.8646 16.7528 25.8646 17.4915V9.8648C25.8647 9.49874 25.7926 9.13625 25.6525 8.79807C25.5123 8.45989 25.3069 8.15267 25.0479 7.89398C24.7889 7.6353 24.4814 7.43023 24.1431 7.2905C23.8047 7.15078 23.4421 7.07915 23.0761 7.07972Z" fill="#40C4FE"/>
<path d="M15.9145 27.4383C17.4526 27.4383 18.6995 26.1914 18.6995 24.6532C18.6995 23.1151 17.4526 21.8682 15.9145 21.8682C14.3763 21.8682 13.1294 23.1151 13.1294 24.6532C13.1294 26.1914 14.3763 27.4383 15.9145 27.4383Z" fill="#182085"/>
<path d="M8.75261 20.2766C10.2908 20.2766 11.5377 19.0296 11.5377 17.4915C11.5377 15.9533 10.2908 14.7064 8.75261 14.7064C7.21445 14.7064 5.96753 15.9533 5.96753 17.4915C5.96753 19.0296 7.21445 20.2766 8.75261 20.2766Z" fill="#182085"/>
<path d="M23.0761 20.2766C24.6142 20.2766 25.8612 19.0296 25.8612 17.4915C25.8612 15.9533 24.6142 14.7064 23.0761 14.7064C21.5379 14.7064 20.291 15.9533 20.291 17.4915C20.291 19.0296 21.5379 20.2766 23.0761 20.2766Z" fill="#182085"/>
</svg>
